<svg id="Layer_1" data-name="Layer 1" xmlns="http://www.w3.org/2000/svg" viewBox="0 0 1200 1200"><defs><style>.cls-1{fill:#e87121;}.cls-2{fill:#2d3032;}</style></defs><rect class="cls-1" width="1200" height="1200" rx="200"/><rect class="cls-2" x="175" y="263.4" width="850" height="673.19"/><path class="cls-1" d="M807.07,620.18c61.68,0,89.93-30.32,89.93-65.81,0-87.86-148.5-47.89-148.5-114,0-24.12,19.64-43.76,63.74-43.76,21.36,0,45.48,6.55,66.15,20L887,396.23c-19.3-13.44-47.55-21.37-74.77-21.37-61.33,0-88.89,30.67-88.89,66.16,0,89.24,148.5,48.58,148.5,114.73,0,23.78-19.64,42.73-64.78,42.73-31.7,0-62.36-12.41-79.59-29.29l-10,19.64C735.41,607.43,770.9,620.18,807.07,620.18ZM519.72,533,577.6,403.46,635.49,533Zm154,85.11h26.88L590.35,376.93H565.2L455,618.12h26.53l28.94-64.44H644.79Zm-321.8,2.06c46.17,0,70.28-25.15,70.28-76.14V376.93H308.86V399h88.2V545.07c0,35.49-15.16,53.06-44.79,53.06-21.36,0-38.93-10.34-52-29.63l-15.16,17.23C299.9,607.78,324.71,620.18,351.93,620.18Z"/><path class="cls-1" d="M870.92,667.69v70.52h-99V667.69H755.18V825.92h16.73v-73h99v73h16.5V667.69ZM661.37,827.28c23.29,0,44.08-7.91,58.1-23.29l-10.63-10.62c-12.88,13.34-28.7,19-46.79,19-38.2,0-66.91-28-66.91-65.56s28.71-65.55,66.91-65.55c18.09,0,33.91,5.65,46.79,18.76l10.63-10.62c-14-15.38-34.81-23.06-57.87-23.06-47.7,0-83,34.13-83,80.47S613.9,827.28,661.37,827.28ZM459.06,811.45V752.68h81.83V738.44H459.06V682.15h91.77V667.69H442.33V825.92H554.22V811.45ZM343.32,825.92h16.73V682.15h55.61V667.69h-128v14.46h55.61Z"/></svg>